<?xml version="1.0" encoding="UTF-8"?>
<svg id="Layer_2" data-name="Layer 2" xmlns="http://www.w3.org/2000/svg" viewBox="0 0 35.71 35.62">
  <defs>
    <style>
      .cls-1 {
        fill: none;
        stroke: #0b376b;
        stroke-linecap: round;
        stroke-linejoin: round;
        stroke-width: 2px;
      }
    </style>
  </defs>
  <g id="Layer_2-2" data-name="Layer 2">
    <g id="Generative_Object" data-name="Generative Object">
      <path class="cls-1" d="M17.16,9.28c4.76-.39,8.87,3.18,9.23,7.86s-3.14,8.82-7.84,9.2c-4.7.38-8.83-3.11-9.23-7.81s3.07-8.86,7.83-9.25Z"/>
      <path class="cls-1" d="M24.59,6.49c.19.12.32.06.47-.05l2.54-1.98c.3-.24.67.02.88.24l2.48,2.48c.29.29.46.66.18,1.04l-1.98,2.67c.06.31.23.55.37.82.48.91.82,1.83,1.09,2.82.04.15.3.22.44.24l2.95.45c.37.06.69.26.69.68v3.82c0,.39-.29.62-.64.67l-3.12.45c-.21.03-.3.13-.35.32-.29,1.14-.76,2.19-1.34,3.21-.06.1-.17.27-.08.39l2.02,2.74c.24.32,0,.7-.24.95l-2.53,2.52c-.23.28-.62.38-.92.15l-2.72-2.1c-1.12.7-2.3,1.22-3.57,1.55-.16.04-.29.11-.3.3l-.5,3.16c-.05.31-.31.59-.65.59h-3.82c-.41,0-.62-.34-.67-.69l-.48-3.07c-.03-.19-.13-.26-.3-.3-1.08-.28-2.08-.71-3.06-1.24l-.48-.33-2.74,2.13c-.33.25-.69.1-.95-.16l-2.55-2.54c-.23-.22-.42-.61-.2-.91l2.02-2.73c.05-.07.03-.18,0-.25-.64-1.1-1.12-2.23-1.44-3.45-.04-.15-.19-.21-.32-.23l-3.16-.46c-.33-.05-.59-.31-.59-.66v-3.82c0-.27.18-.58.45-.62l3.23-.51c.19-.03.39-.12.44-.32.29-1.15.76-2.23,1.34-3.26.09-.16.1-.29-.02-.44l-1.85-2.47c-.29-.38-.16-.77.16-1.08l2.42-2.41c.24-.32.59-.47.96-.32l2.54,2.01c.17.13.31.13.49.02,1.06-.63,2.16-1.12,3.35-1.41.2-.05.29-.17.32-.36l.47-3.11c.05-.33.31-.59.66-.59h3.82c.38,0,.62.3.67.64l.46,3.07c.03.19.13.31.33.36,1.19.29,2.3.77,3.37,1.42Z"/>
    </g>
  </g>
</svg>